<mxfile host="app.diagrams.net" agent="Mozilla/5.0 (Windows NT 10.0; Win64; x64; rv:142.0) Gecko/20100101 Firefox/142.0" version="28.2.1">
  <diagram id="R2lEEEUBdFMjLlhIrx00" name="Page-1">
    <mxGraphModel dx="570" dy="304" grid="1" gridSize="10" guides="1" tooltips="1" connect="1" arrows="1" fold="1" page="1" pageScale="1" pageWidth="1654" pageHeight="2336" math="0" shadow="0" extFonts="Permanent Marker^https://fonts.googleapis.com/css?family=Permanent+Marker">
      <root>
        <mxCell id="0" />
        <mxCell id="1" parent="0" />
        <mxCell id="_qxPgumP9IlU6FrScyzH-1" value="&lt;div&gt;Book&lt;/div&gt;" style="whiteSpace=wrap;html=1;align=center;" parent="1" vertex="1">
          <mxGeometry x="375" y="350" width="100" height="40" as="geometry" />
        </mxCell>
        <mxCell id="_qxPgumP9IlU6FrScyzH-5" style="edgeStyle=orthogonalEdgeStyle;rounded=0;orthogonalLoop=1;jettySize=auto;html=1;exitX=1;exitY=0.5;exitDx=0;exitDy=0;entryX=0.5;entryY=0;entryDx=0;entryDy=0;endArrow=none;endFill=0;" parent="1" source="_qxPgumP9IlU6FrScyzH-2" target="_qxPgumP9IlU6FrScyzH-1" edge="1">
          <mxGeometry relative="1" as="geometry">
            <mxPoint x="395" y="289.96" as="sourcePoint" />
            <mxPoint x="425" y="379.96" as="targetPoint" />
            <Array as="points">
              <mxPoint x="425" y="260" />
            </Array>
          </mxGeometry>
        </mxCell>
        <mxCell id="_qxPgumP9IlU6FrScyzH-2" value="Name" style="ellipse;whiteSpace=wrap;html=1;align=center;fontStyle=4;" parent="1" vertex="1">
          <mxGeometry x="295" y="240" width="100" height="40" as="geometry" />
        </mxCell>
        <mxCell id="_qxPgumP9IlU6FrScyzH-6" value="&lt;div&gt;Author&lt;/div&gt;" style="ellipse;whiteSpace=wrap;html=1;align=center;" parent="1" vertex="1">
          <mxGeometry x="295" y="290" width="100" height="40" as="geometry" />
        </mxCell>
        <mxCell id="_qxPgumP9IlU6FrScyzH-7" value="Date Added" style="ellipse;whiteSpace=wrap;html=1;align=center;" parent="1" vertex="1">
          <mxGeometry x="455" y="290" width="100" height="40" as="geometry" />
        </mxCell>
        <mxCell id="_qxPgumP9IlU6FrScyzH-10" value="" style="edgeStyle=orthogonalEdgeStyle;rounded=0;orthogonalLoop=1;jettySize=auto;html=1;exitX=1;exitY=0.5;exitDx=0;exitDy=0;entryX=0.5;entryY=0;entryDx=0;entryDy=0;endArrow=none;endFill=0;" parent="1" source="_qxPgumP9IlU6FrScyzH-6" target="_qxPgumP9IlU6FrScyzH-1" edge="1">
          <mxGeometry relative="1" as="geometry">
            <mxPoint x="535" y="310" as="sourcePoint" />
            <mxPoint x="455" y="380" as="targetPoint" />
            <Array as="points">
              <mxPoint x="425" y="310" />
            </Array>
          </mxGeometry>
        </mxCell>
        <mxCell id="_qxPgumP9IlU6FrScyzH-11" value="" style="edgeStyle=orthogonalEdgeStyle;rounded=0;orthogonalLoop=1;jettySize=auto;html=1;endArrow=none;endFill=0;entryX=0.5;entryY=0;entryDx=0;entryDy=0;exitX=0;exitY=0.5;exitDx=0;exitDy=0;" parent="1" source="_qxPgumP9IlU6FrScyzH-7" target="_qxPgumP9IlU6FrScyzH-1" edge="1">
          <mxGeometry relative="1" as="geometry">
            <mxPoint x="485" y="260" as="sourcePoint" />
            <mxPoint x="465" y="280" as="targetPoint" />
            <Array as="points">
              <mxPoint x="455" y="310" />
              <mxPoint x="425" y="310" />
            </Array>
          </mxGeometry>
        </mxCell>
        <mxCell id="_qxPgumP9IlU6FrScyzH-14" style="edgeStyle=orthogonalEdgeStyle;rounded=0;orthogonalLoop=1;jettySize=auto;html=1;exitX=0;exitY=0.5;exitDx=0;exitDy=0;entryX=0.5;entryY=0;entryDx=0;entryDy=0;endArrow=none;endFill=0;" parent="1" source="_qxPgumP9IlU6FrScyzH-12" target="_qxPgumP9IlU6FrScyzH-1" edge="1">
          <mxGeometry relative="1" as="geometry" />
        </mxCell>
        <mxCell id="_qxPgumP9IlU6FrScyzH-12" value="Image" style="ellipse;whiteSpace=wrap;html=1;align=center;" parent="1" vertex="1">
          <mxGeometry x="455" y="240" width="100" height="40" as="geometry" />
        </mxCell>
        <mxCell id="_qxPgumP9IlU6FrScyzH-16" value="Rating" style="shape=ext;margin=3;double=1;whiteSpace=wrap;html=1;align=center;" parent="1" vertex="1">
          <mxGeometry x="37" y="350" width="100" height="40" as="geometry" />
        </mxCell>
        <mxCell id="_qxPgumP9IlU6FrScyzH-17" value="&lt;div&gt;Comment&lt;/div&gt;" style="shape=ext;margin=3;double=1;whiteSpace=wrap;html=1;align=center;" parent="1" vertex="1">
          <mxGeometry x="730" y="350" width="100" height="40" as="geometry" />
        </mxCell>
        <mxCell id="_qxPgumP9IlU6FrScyzH-19" value="&lt;div&gt;Belongs To&lt;/div&gt;" style="shape=rhombus;double=1;perimeter=rhombusPerimeter;whiteSpace=wrap;html=1;align=center;" parent="1" vertex="1">
          <mxGeometry x="200" y="340" width="120" height="60" as="geometry" />
        </mxCell>
        <mxCell id="_qxPgumP9IlU6FrScyzH-20" value="Belongs To" style="shape=rhombus;double=1;perimeter=rhombusPerimeter;whiteSpace=wrap;html=1;align=center;" parent="1" vertex="1">
          <mxGeometry x="540" y="340" width="120" height="60" as="geometry" />
        </mxCell>
        <mxCell id="_qxPgumP9IlU6FrScyzH-21" value="" style="endArrow=none;html=1;rounded=0;exitX=1;exitY=0.5;exitDx=0;exitDy=0;entryX=0;entryY=0.5;entryDx=0;entryDy=0;" parent="1" source="_qxPgumP9IlU6FrScyzH-16" target="_qxPgumP9IlU6FrScyzH-19" edge="1">
          <mxGeometry relative="1" as="geometry">
            <mxPoint x="330" y="430" as="sourcePoint" />
            <mxPoint x="490" y="430" as="targetPoint" />
          </mxGeometry>
        </mxCell>
        <mxCell id="_qxPgumP9IlU6FrScyzH-22" value="" style="endArrow=none;html=1;rounded=0;exitX=1;exitY=0.5;exitDx=0;exitDy=0;entryX=0;entryY=0.5;entryDx=0;entryDy=0;" parent="1" source="_qxPgumP9IlU6FrScyzH-19" target="_qxPgumP9IlU6FrScyzH-1" edge="1">
          <mxGeometry relative="1" as="geometry">
            <mxPoint x="330" y="480" as="sourcePoint" />
            <mxPoint x="390" y="480" as="targetPoint" />
          </mxGeometry>
        </mxCell>
        <mxCell id="_qxPgumP9IlU6FrScyzH-23" value="" style="endArrow=none;html=1;rounded=0;exitX=1;exitY=0.5;exitDx=0;exitDy=0;entryX=0;entryY=0.5;entryDx=0;entryDy=0;" parent="1" source="_qxPgumP9IlU6FrScyzH-1" target="_qxPgumP9IlU6FrScyzH-20" edge="1">
          <mxGeometry relative="1" as="geometry">
            <mxPoint x="410" y="440" as="sourcePoint" />
            <mxPoint x="465" y="440" as="targetPoint" />
          </mxGeometry>
        </mxCell>
        <mxCell id="_qxPgumP9IlU6FrScyzH-24" value="" style="endArrow=none;html=1;rounded=0;exitX=1;exitY=0.5;exitDx=0;exitDy=0;entryX=0;entryY=0.5;entryDx=0;entryDy=0;" parent="1" source="_qxPgumP9IlU6FrScyzH-20" target="_qxPgumP9IlU6FrScyzH-17" edge="1">
          <mxGeometry relative="1" as="geometry">
            <mxPoint x="660" y="490" as="sourcePoint" />
            <mxPoint x="715" y="490" as="targetPoint" />
          </mxGeometry>
        </mxCell>
        <mxCell id="_qxPgumP9IlU6FrScyzH-26" value="Value" style="ellipse;whiteSpace=wrap;html=1;align=center;" parent="1" vertex="1">
          <mxGeometry x="37" y="270" width="100" height="40" as="geometry" />
        </mxCell>
        <mxCell id="_qxPgumP9IlU6FrScyzH-27" value="&lt;div&gt;Text&lt;/div&gt;" style="ellipse;whiteSpace=wrap;html=1;align=center;" parent="1" vertex="1">
          <mxGeometry x="730" y="270" width="100" height="40" as="geometry" />
        </mxCell>
        <mxCell id="_qxPgumP9IlU6FrScyzH-29" value="" style="endArrow=none;html=1;rounded=0;exitX=0.5;exitY=0;exitDx=0;exitDy=0;entryX=0.5;entryY=1;entryDx=0;entryDy=0;" parent="1" source="_qxPgumP9IlU6FrScyzH-16" target="_qxPgumP9IlU6FrScyzH-26" edge="1">
          <mxGeometry relative="1" as="geometry">
            <mxPoint x="157" y="360" as="sourcePoint" />
            <mxPoint x="217" y="360" as="targetPoint" />
          </mxGeometry>
        </mxCell>
        <mxCell id="_qxPgumP9IlU6FrScyzH-30" value="" style="endArrow=none;html=1;rounded=0;exitX=0.5;exitY=0;exitDx=0;exitDy=0;entryX=0.5;entryY=1;entryDx=0;entryDy=0;" parent="1" source="_qxPgumP9IlU6FrScyzH-17" target="_qxPgumP9IlU6FrScyzH-27" edge="1">
          <mxGeometry relative="1" as="geometry">
            <mxPoint x="781" y="355" as="sourcePoint" />
            <mxPoint x="781" y="315" as="targetPoint" />
          </mxGeometry>
        </mxCell>
        <mxCell id="_qxPgumP9IlU6FrScyzH-50" value="&lt;div&gt;Views&lt;/div&gt;" style="shape=rhombus;perimeter=rhombusPerimeter;whiteSpace=wrap;html=1;align=center;" parent="1" vertex="1">
          <mxGeometry x="285" y="593" width="120" height="60" as="geometry" />
        </mxCell>
        <mxCell id="_qxPgumP9IlU6FrScyzH-51" value="" style="endArrow=none;html=1;rounded=0;entryX=0.5;entryY=1;entryDx=0;entryDy=0;exitX=0.25;exitY=0;exitDx=0;exitDy=0;" parent="1" source="U-U-GfYKarlf4OOhgMv9-1" target="_qxPgumP9IlU6FrScyzH-50" edge="1">
          <mxGeometry relative="1" as="geometry">
            <mxPoint x="385" y="743" as="sourcePoint" />
            <mxPoint x="470" y="743" as="targetPoint" />
            <Array as="points">
              <mxPoint x="395" y="713" />
              <mxPoint x="345" y="713" />
            </Array>
          </mxGeometry>
        </mxCell>
        <mxCell id="_qxPgumP9IlU6FrScyzH-52" value="" style="endArrow=none;html=1;rounded=0;exitX=0.25;exitY=1;exitDx=0;exitDy=0;entryX=0.5;entryY=0;entryDx=0;entryDy=0;" parent="1" source="_qxPgumP9IlU6FrScyzH-1" target="_qxPgumP9IlU6FrScyzH-50" edge="1">
          <mxGeometry relative="1" as="geometry">
            <mxPoint x="200" y="490" as="sourcePoint" />
            <mxPoint x="360" y="490" as="targetPoint" />
            <Array as="points">
              <mxPoint x="400" y="410" />
              <mxPoint x="345" y="410" />
            </Array>
          </mxGeometry>
        </mxCell>
        <mxCell id="_qxPgumP9IlU6FrScyzH-53" value="Views" style="shape=rhombus;perimeter=rhombusPerimeter;whiteSpace=wrap;html=1;align=center;" parent="1" vertex="1">
          <mxGeometry x="750" y="633" width="120" height="60" as="geometry" />
        </mxCell>
        <mxCell id="_qxPgumP9IlU6FrScyzH-54" value="&lt;div&gt;Views&lt;/div&gt;" style="shape=rhombus;perimeter=rhombusPerimeter;whiteSpace=wrap;html=1;align=center;" parent="1" vertex="1">
          <mxGeometry x="50" y="613" width="120" height="60" as="geometry" />
        </mxCell>
        <mxCell id="_qxPgumP9IlU6FrScyzH-55" value="" style="endArrow=none;html=1;rounded=0;exitX=0.5;exitY=1;exitDx=0;exitDy=0;entryX=0;entryY=0.25;entryDx=0;entryDy=0;" parent="1" source="BT7zFztmOr8-_txrLHxJ-18" target="U-U-GfYKarlf4OOhgMv9-1" edge="1">
          <mxGeometry relative="1" as="geometry">
            <mxPoint x="160" y="663" as="sourcePoint" />
            <mxPoint x="350" y="773" as="targetPoint" />
            <Array as="points">
              <mxPoint x="220" y="640" />
              <mxPoint x="270" y="640" />
              <mxPoint x="270" y="773" />
            </Array>
          </mxGeometry>
        </mxCell>
        <mxCell id="_qxPgumP9IlU6FrScyzH-57" value="" style="endArrow=none;html=1;rounded=0;exitX=0;exitY=0.5;exitDx=0;exitDy=0;entryX=1;entryY=0.5;entryDx=0;entryDy=0;" parent="1" source="_qxPgumP9IlU6FrScyzH-53" edge="1">
          <mxGeometry relative="1" as="geometry">
            <mxPoint x="510" y="673" as="sourcePoint" />
            <mxPoint x="490" y="773" as="targetPoint" />
            <Array as="points">
              <mxPoint x="560" y="663" />
              <mxPoint x="560" y="773" />
            </Array>
          </mxGeometry>
        </mxCell>
        <mxCell id="_qxPgumP9IlU6FrScyzH-58" value="" style="endArrow=none;html=1;rounded=0;exitX=0.75;exitY=1;exitDx=0;exitDy=0;entryX=1;entryY=0;entryDx=0;entryDy=0;" parent="1" source="_qxPgumP9IlU6FrScyzH-17" target="_qxPgumP9IlU6FrScyzH-53" edge="1">
          <mxGeometry relative="1" as="geometry">
            <mxPoint x="640" y="590" as="sourcePoint" />
            <mxPoint x="800" y="420" as="targetPoint" />
            <Array as="points">
              <mxPoint x="805" y="500" />
              <mxPoint x="840" y="500" />
            </Array>
          </mxGeometry>
        </mxCell>
        <mxCell id="_qxPgumP9IlU6FrScyzH-59" value="" style="endArrow=none;html=1;rounded=0;exitX=0.25;exitY=1;exitDx=0;exitDy=0;entryX=0;entryY=0;entryDx=0;entryDy=0;" parent="1" source="_qxPgumP9IlU6FrScyzH-16" target="_qxPgumP9IlU6FrScyzH-54" edge="1">
          <mxGeometry relative="1" as="geometry">
            <mxPoint x="187" y="450" as="sourcePoint" />
            <mxPoint x="347" y="450" as="targetPoint" />
            <Array as="points">
              <mxPoint x="62" y="580" />
              <mxPoint x="80" y="580" />
            </Array>
          </mxGeometry>
        </mxCell>
        <mxCell id="_qxPgumP9IlU6FrScyzH-60" value="Form" style="shape=ext;margin=3;double=1;whiteSpace=wrap;html=1;align=center;" parent="1" vertex="1">
          <mxGeometry x="600" y="573" width="100" height="40" as="geometry" />
        </mxCell>
        <mxCell id="_qxPgumP9IlU6FrScyzH-62" value="&lt;div&gt;Requests&lt;/div&gt;" style="shape=rhombus;double=1;perimeter=rhombusPerimeter;whiteSpace=wrap;html=1;align=center;" parent="1" vertex="1">
          <mxGeometry x="410" y="623" width="120" height="60" as="geometry" />
        </mxCell>
        <mxCell id="_qxPgumP9IlU6FrScyzH-63" value="" style="endArrow=none;html=1;rounded=0;exitX=0.5;exitY=1;exitDx=0;exitDy=0;exitPerimeter=0;entryX=0.75;entryY=0;entryDx=0;entryDy=0;" parent="1" source="_qxPgumP9IlU6FrScyzH-62" target="U-U-GfYKarlf4OOhgMv9-1" edge="1">
          <mxGeometry relative="1" as="geometry">
            <mxPoint x="530" y="763" as="sourcePoint" />
            <mxPoint x="455" y="743" as="targetPoint" />
            <Array as="points">
              <mxPoint x="470" y="713" />
              <mxPoint x="445" y="713" />
            </Array>
          </mxGeometry>
        </mxCell>
        <mxCell id="_qxPgumP9IlU6FrScyzH-64" value="&lt;div&gt;Adds&lt;/div&gt;" style="shape=rhombus;perimeter=rhombusPerimeter;whiteSpace=wrap;html=1;align=center;" parent="1" vertex="1">
          <mxGeometry x="410" y="460" width="120" height="60" as="geometry" />
        </mxCell>
        <mxCell id="_qxPgumP9IlU6FrScyzH-66" value="" style="endArrow=none;html=1;rounded=0;exitX=0.5;exitY=1;exitDx=0;exitDy=0;entryX=0;entryY=0.25;entryDx=0;entryDy=0;" parent="1" source="_qxPgumP9IlU6FrScyzH-64" target="_qxPgumP9IlU6FrScyzH-60" edge="1">
          <mxGeometry relative="1" as="geometry">
            <mxPoint x="530" y="583" as="sourcePoint" />
            <mxPoint x="800" y="743" as="targetPoint" />
            <Array as="points">
              <mxPoint x="470" y="583" />
            </Array>
          </mxGeometry>
        </mxCell>
        <mxCell id="_qxPgumP9IlU6FrScyzH-67" value="" style="endArrow=none;html=1;rounded=0;exitX=1;exitY=0;exitDx=0;exitDy=0;entryX=0;entryY=0.75;entryDx=0;entryDy=0;" parent="1" source="_qxPgumP9IlU6FrScyzH-62" target="_qxPgumP9IlU6FrScyzH-60" edge="1">
          <mxGeometry relative="1" as="geometry">
            <mxPoint x="650" y="743" as="sourcePoint" />
            <mxPoint x="810" y="743" as="targetPoint" />
            <Array as="points">
              <mxPoint x="560" y="638" />
              <mxPoint x="560" y="603" />
            </Array>
          </mxGeometry>
        </mxCell>
        <mxCell id="_qxPgumP9IlU6FrScyzH-95" value="" style="endArrow=none;html=1;rounded=0;exitX=0.5;exitY=0;exitDx=0;exitDy=0;" parent="1" source="BT7zFztmOr8-_txrLHxJ-29" edge="1">
          <mxGeometry relative="1" as="geometry">
            <mxPoint x="650" y="740" as="sourcePoint" />
            <mxPoint x="650" y="683" as="targetPoint" />
          </mxGeometry>
        </mxCell>
        <mxCell id="_qxPgumP9IlU6FrScyzH-96" value="" style="endArrow=none;html=1;rounded=0;curved=1;" parent="1" edge="1">
          <mxGeometry relative="1" as="geometry">
            <mxPoint x="650" y="683" as="sourcePoint" />
            <mxPoint x="650" y="643" as="targetPoint" />
            <Array as="points">
              <mxPoint x="630" y="663" />
            </Array>
          </mxGeometry>
        </mxCell>
        <mxCell id="_qxPgumP9IlU6FrScyzH-97" value="" style="endArrow=none;html=1;rounded=0;exitX=0.5;exitY=1;exitDx=0;exitDy=0;" parent="1" source="_qxPgumP9IlU6FrScyzH-60" edge="1">
          <mxGeometry relative="1" as="geometry">
            <mxPoint x="660" y="823" as="sourcePoint" />
            <mxPoint x="650" y="643" as="targetPoint" />
          </mxGeometry>
        </mxCell>
        <mxCell id="_qxPgumP9IlU6FrScyzH-98" value="" style="endArrow=none;html=1;rounded=0;exitX=0.5;exitY=0;exitDx=0;exitDy=0;entryX=0.75;entryY=1;entryDx=0;entryDy=0;" parent="1" source="_qxPgumP9IlU6FrScyzH-64" target="_qxPgumP9IlU6FrScyzH-1" edge="1">
          <mxGeometry relative="1" as="geometry">
            <mxPoint x="470" y="430" as="sourcePoint" />
            <mxPoint x="630" y="430" as="targetPoint" />
            <Array as="points">
              <mxPoint x="470" y="410" />
              <mxPoint x="450" y="410" />
            </Array>
          </mxGeometry>
        </mxCell>
        <mxCell id="U-U-GfYKarlf4OOhgMv9-1" value="User" style="whiteSpace=wrap;html=1;align=center;" parent="1" vertex="1">
          <mxGeometry x="370" y="763" width="100" height="40" as="geometry" />
        </mxCell>
        <mxCell id="U-U-GfYKarlf4OOhgMv9-13" value="Image" style="ellipse;whiteSpace=wrap;html=1;align=center;" parent="1" vertex="1">
          <mxGeometry x="660" y="450" width="100" height="40" as="geometry" />
        </mxCell>
        <mxCell id="U-U-GfYKarlf4OOhgMv9-15" value="&lt;span style=&quot;border-bottom: 1px dotted;&quot;&gt;Name&lt;/span&gt;" style="ellipse;whiteSpace=wrap;html=1;align=center;" parent="1" vertex="1">
          <mxGeometry x="660" y="400" width="100" height="40" as="geometry" />
        </mxCell>
        <mxCell id="U-U-GfYKarlf4OOhgMv9-18" value="Author" style="ellipse;whiteSpace=wrap;html=1;align=center;" parent="1" vertex="1">
          <mxGeometry x="540" y="420" width="100" height="40" as="geometry" />
        </mxCell>
        <mxCell id="U-U-GfYKarlf4OOhgMv9-19" value="Date Created" style="ellipse;whiteSpace=wrap;html=1;align=center;" parent="1" vertex="1">
          <mxGeometry x="660" y="500" width="100" height="40" as="geometry" />
        </mxCell>
        <mxCell id="U-U-GfYKarlf4OOhgMv9-20" value="Summary" style="ellipse;whiteSpace=wrap;html=1;align=center;" parent="1" vertex="1">
          <mxGeometry x="540" y="470" width="100" height="40" as="geometry" />
        </mxCell>
        <mxCell id="U-U-GfYKarlf4OOhgMv9-21" value="&lt;div&gt;Summary&lt;/div&gt;" style="ellipse;whiteSpace=wrap;html=1;align=center;" parent="1" vertex="1">
          <mxGeometry x="295" y="190" width="100" height="40" as="geometry" />
        </mxCell>
        <mxCell id="U-U-GfYKarlf4OOhgMv9-22" value="" style="endArrow=none;html=1;rounded=0;exitX=0.5;exitY=0;exitDx=0;exitDy=0;entryX=1;entryY=0.5;entryDx=0;entryDy=0;" parent="1" source="_qxPgumP9IlU6FrScyzH-1" target="U-U-GfYKarlf4OOhgMv9-21" edge="1">
          <mxGeometry relative="1" as="geometry">
            <mxPoint x="430" y="260" as="sourcePoint" />
            <mxPoint x="690" y="210" as="targetPoint" />
            <Array as="points">
              <mxPoint x="425" y="210" />
            </Array>
          </mxGeometry>
        </mxCell>
        <mxCell id="U-U-GfYKarlf4OOhgMv9-23" value="" style="endArrow=none;html=1;rounded=0;exitX=1;exitY=0.5;exitDx=0;exitDy=0;entryX=0.5;entryY=0;entryDx=0;entryDy=0;" parent="1" source="U-U-GfYKarlf4OOhgMv9-20" target="_qxPgumP9IlU6FrScyzH-60" edge="1">
          <mxGeometry relative="1" as="geometry">
            <mxPoint x="640" y="530" as="sourcePoint" />
            <mxPoint x="800" y="530" as="targetPoint" />
            <Array as="points">
              <mxPoint x="650" y="490" />
            </Array>
          </mxGeometry>
        </mxCell>
        <mxCell id="U-U-GfYKarlf4OOhgMv9-24" value="" style="endArrow=none;html=1;rounded=0;exitX=1;exitY=0.5;exitDx=0;exitDy=0;entryX=0.5;entryY=0;entryDx=0;entryDy=0;" parent="1" source="U-U-GfYKarlf4OOhgMv9-18" target="_qxPgumP9IlU6FrScyzH-60" edge="1">
          <mxGeometry relative="1" as="geometry">
            <mxPoint x="480" y="530" as="sourcePoint" />
            <mxPoint x="640" y="530" as="targetPoint" />
            <Array as="points">
              <mxPoint x="650" y="440" />
            </Array>
          </mxGeometry>
        </mxCell>
        <mxCell id="U-U-GfYKarlf4OOhgMv9-25" value="" style="endArrow=none;html=1;rounded=0;exitX=0;exitY=0.5;exitDx=0;exitDy=0;entryX=0.5;entryY=0;entryDx=0;entryDy=0;" parent="1" source="U-U-GfYKarlf4OOhgMv9-19" target="_qxPgumP9IlU6FrScyzH-60" edge="1">
          <mxGeometry relative="1" as="geometry">
            <mxPoint x="570" y="550" as="sourcePoint" />
            <mxPoint x="730" y="550" as="targetPoint" />
            <Array as="points">
              <mxPoint x="650" y="520" />
            </Array>
          </mxGeometry>
        </mxCell>
        <mxCell id="U-U-GfYKarlf4OOhgMv9-26" value="" style="endArrow=none;html=1;rounded=0;exitX=0;exitY=0.5;exitDx=0;exitDy=0;entryX=0.5;entryY=0;entryDx=0;entryDy=0;" parent="1" source="U-U-GfYKarlf4OOhgMv9-13" target="_qxPgumP9IlU6FrScyzH-60" edge="1">
          <mxGeometry relative="1" as="geometry">
            <mxPoint x="590" y="560" as="sourcePoint" />
            <mxPoint x="750" y="560" as="targetPoint" />
            <Array as="points">
              <mxPoint x="650" y="470" />
            </Array>
          </mxGeometry>
        </mxCell>
        <mxCell id="U-U-GfYKarlf4OOhgMv9-27" value="" style="endArrow=none;html=1;rounded=0;exitX=0.5;exitY=0;exitDx=0;exitDy=0;entryX=0;entryY=0.5;entryDx=0;entryDy=0;" parent="1" source="_qxPgumP9IlU6FrScyzH-60" target="U-U-GfYKarlf4OOhgMv9-15" edge="1">
          <mxGeometry relative="1" as="geometry">
            <mxPoint x="690" y="560" as="sourcePoint" />
            <mxPoint x="850" y="560" as="targetPoint" />
            <Array as="points">
              <mxPoint x="650" y="420" />
            </Array>
          </mxGeometry>
        </mxCell>
        <mxCell id="U-U-GfYKarlf4OOhgMv9-28" value="&lt;div&gt;Look-Across&lt;/div&gt;&lt;div&gt;Notation&lt;/div&gt;" style="text;html=1;align=center;verticalAlign=middle;resizable=0;points=[];autosize=1;strokeColor=#314354;fillColor=#647687;rounded=1;glass=0;fontColor=#ffffff;strokeWidth=4;" parent="1" vertex="1">
          <mxGeometry x="215" y="470" width="90" height="40" as="geometry" />
        </mxCell>
        <mxCell id="BT7zFztmOr8-_txrLHxJ-1" value="Date Published" style="ellipse;whiteSpace=wrap;html=1;align=center;" vertex="1" parent="1">
          <mxGeometry x="455" y="190" width="100" height="40" as="geometry" />
        </mxCell>
        <mxCell id="BT7zFztmOr8-_txrLHxJ-2" value="" style="endArrow=none;html=1;rounded=0;exitX=0.5;exitY=0;exitDx=0;exitDy=0;entryX=0;entryY=0.5;entryDx=0;entryDy=0;" edge="1" parent="1" source="_qxPgumP9IlU6FrScyzH-1" target="BT7zFztmOr8-_txrLHxJ-1">
          <mxGeometry relative="1" as="geometry">
            <mxPoint x="640" y="370" as="sourcePoint" />
            <mxPoint x="610" y="230" as="targetPoint" />
            <Array as="points">
              <mxPoint x="425" y="210" />
            </Array>
          </mxGeometry>
        </mxCell>
        <mxCell id="BT7zFztmOr8-_txrLHxJ-3" value="Password" style="ellipse;whiteSpace=wrap;html=1;align=center;" vertex="1" parent="1">
          <mxGeometry x="110" y="810" width="100" height="40" as="geometry" />
        </mxCell>
        <mxCell id="BT7zFztmOr8-_txrLHxJ-6" value="" style="endArrow=none;html=1;rounded=0;exitX=1;exitY=0.5;exitDx=0;exitDy=0;entryX=0;entryY=0.75;entryDx=0;entryDy=0;" edge="1" parent="1" source="BT7zFztmOr8-_txrLHxJ-12" target="U-U-GfYKarlf4OOhgMv9-1">
          <mxGeometry relative="1" as="geometry">
            <mxPoint x="140" y="930" as="sourcePoint" />
            <mxPoint x="300" y="930" as="targetPoint" />
            <Array as="points">
              <mxPoint x="250" y="770" />
              <mxPoint x="250" y="793" />
            </Array>
          </mxGeometry>
        </mxCell>
        <mxCell id="BT7zFztmOr8-_txrLHxJ-12" value="&lt;div&gt;Username&lt;/div&gt;" style="ellipse;whiteSpace=wrap;html=1;align=center;fontStyle=4;" vertex="1" parent="1">
          <mxGeometry x="110" y="750" width="100" height="40" as="geometry" />
        </mxCell>
        <mxCell id="BT7zFztmOr8-_txrLHxJ-16" value="" style="endArrow=none;html=1;rounded=0;exitX=0.25;exitY=1;exitDx=0;exitDy=0;entryX=1;entryY=0.5;entryDx=0;entryDy=0;" edge="1" parent="1" source="U-U-GfYKarlf4OOhgMv9-1" target="BT7zFztmOr8-_txrLHxJ-3">
          <mxGeometry relative="1" as="geometry">
            <mxPoint x="250" y="830" as="sourcePoint" />
            <mxPoint x="250" y="870" as="targetPoint" />
            <Array as="points">
              <mxPoint x="395" y="830" />
              <mxPoint x="230" y="830" />
            </Array>
          </mxGeometry>
        </mxCell>
        <mxCell id="BT7zFztmOr8-_txrLHxJ-18" value="Writes" style="shape=rhombus;double=1;perimeter=rhombusPerimeter;whiteSpace=wrap;html=1;align=center;" vertex="1" parent="1">
          <mxGeometry x="160" y="553" width="120" height="60" as="geometry" />
        </mxCell>
        <mxCell id="BT7zFztmOr8-_txrLHxJ-19" value="" style="endArrow=none;html=1;rounded=0;exitX=1;exitY=0;exitDx=0;exitDy=0;" edge="1" parent="1" source="_qxPgumP9IlU6FrScyzH-54">
          <mxGeometry relative="1" as="geometry">
            <mxPoint x="220" y="670" as="sourcePoint" />
            <mxPoint x="220" y="628" as="targetPoint" />
          </mxGeometry>
        </mxCell>
        <mxCell id="BT7zFztmOr8-_txrLHxJ-20" value="" style="endArrow=none;html=1;rounded=0;exitX=0;exitY=0.5;exitDx=0;exitDy=0;entryX=0.75;entryY=1;entryDx=0;entryDy=0;" edge="1" parent="1" source="BT7zFztmOr8-_txrLHxJ-18" target="_qxPgumP9IlU6FrScyzH-16">
          <mxGeometry relative="1" as="geometry">
            <mxPoint x="330" y="620" as="sourcePoint" />
            <mxPoint x="490" y="620" as="targetPoint" />
            <Array as="points">
              <mxPoint x="112" y="583" />
            </Array>
          </mxGeometry>
        </mxCell>
        <mxCell id="BT7zFztmOr8-_txrLHxJ-21" value="Writes" style="shape=rhombus;double=1;perimeter=rhombusPerimeter;whiteSpace=wrap;html=1;align=center;" vertex="1" parent="1">
          <mxGeometry x="710" y="563" width="120" height="60" as="geometry" />
        </mxCell>
        <mxCell id="BT7zFztmOr8-_txrLHxJ-22" value="" style="endArrow=none;html=1;rounded=0;entryX=0;entryY=1;entryDx=0;entryDy=0;exitX=1;exitY=0.25;exitDx=0;exitDy=0;movable=1;resizable=1;rotatable=1;deletable=1;editable=1;locked=0;connectable=1;" edge="1" parent="1" source="U-U-GfYKarlf4OOhgMv9-1" target="BT7zFztmOr8-_txrLHxJ-21">
          <mxGeometry relative="1" as="geometry">
            <mxPoint x="490" y="773" as="sourcePoint" />
            <mxPoint x="890" y="710" as="targetPoint" />
            <Array as="points">
              <mxPoint x="560" y="773" />
              <mxPoint x="560" y="663" />
              <mxPoint x="740" y="663" />
            </Array>
          </mxGeometry>
        </mxCell>
        <mxCell id="BT7zFztmOr8-_txrLHxJ-23" value="" style="endArrow=none;html=1;rounded=0;exitX=0.5;exitY=0;exitDx=0;exitDy=0;entryX=0.5;entryY=1;entryDx=0;entryDy=0;" edge="1" parent="1" source="BT7zFztmOr8-_txrLHxJ-21" target="_qxPgumP9IlU6FrScyzH-17">
          <mxGeometry relative="1" as="geometry">
            <mxPoint x="890" y="540" as="sourcePoint" />
            <mxPoint x="1050" y="540" as="targetPoint" />
            <Array as="points">
              <mxPoint x="770" y="540" />
              <mxPoint x="780" y="540" />
            </Array>
          </mxGeometry>
        </mxCell>
        <mxCell id="BT7zFztmOr8-_txrLHxJ-25" value="&lt;div&gt;Manages&lt;/div&gt;" style="shape=rhombus;perimeter=rhombusPerimeter;whiteSpace=wrap;html=1;align=center;" vertex="1" parent="1">
          <mxGeometry x="520" y="860" width="120" height="60" as="geometry" />
        </mxCell>
        <mxCell id="BT7zFztmOr8-_txrLHxJ-26" value="" style="endArrow=none;html=1;rounded=0;exitX=0.5;exitY=1;exitDx=0;exitDy=0;entryX=0;entryY=0.5;entryDx=0;entryDy=0;" edge="1" parent="1" source="U-U-GfYKarlf4OOhgMv9-1" target="BT7zFztmOr8-_txrLHxJ-25">
          <mxGeometry relative="1" as="geometry">
            <mxPoint x="240" y="840" as="sourcePoint" />
            <mxPoint x="450" y="850" as="targetPoint" />
            <Array as="points">
              <mxPoint x="420" y="890" />
            </Array>
          </mxGeometry>
        </mxCell>
        <mxCell id="BT7zFztmOr8-_txrLHxJ-28" value="&lt;div&gt;Admin&lt;/div&gt;" style="shape=associativeEntity;whiteSpace=wrap;html=1;align=center;" vertex="1" parent="1">
          <mxGeometry x="680" y="790" width="140" height="60" as="geometry" />
        </mxCell>
        <mxCell id="BT7zFztmOr8-_txrLHxJ-29" value="Reviews" style="shape=rhombus;perimeter=rhombusPerimeter;whiteSpace=wrap;html=1;align=center;" vertex="1" parent="1">
          <mxGeometry x="590" y="693" width="120" height="60" as="geometry" />
        </mxCell>
        <mxCell id="BT7zFztmOr8-_txrLHxJ-31" value="Has Permissions" style="shape=rhombus;double=1;perimeter=rhombusPerimeter;whiteSpace=wrap;html=1;align=center;" vertex="1" parent="1">
          <mxGeometry x="520" y="790" width="120" height="60" as="geometry" />
        </mxCell>
        <mxCell id="BT7zFztmOr8-_txrLHxJ-32" value="" style="endArrow=none;html=1;rounded=0;exitX=1;exitY=0.75;exitDx=0;exitDy=0;entryX=0;entryY=0;entryDx=0;entryDy=0;" edge="1" parent="1" source="U-U-GfYKarlf4OOhgMv9-1" target="BT7zFztmOr8-_txrLHxJ-31">
          <mxGeometry relative="1" as="geometry">
            <mxPoint x="550" y="880" as="sourcePoint" />
            <mxPoint x="550" y="947" as="targetPoint" />
            <Array as="points">
              <mxPoint x="550" y="793" />
            </Array>
          </mxGeometry>
        </mxCell>
        <mxCell id="BT7zFztmOr8-_txrLHxJ-33" value="" style="endArrow=none;html=1;rounded=0;exitX=1;exitY=0.5;exitDx=0;exitDy=0;entryX=0;entryY=0.5;entryDx=0;entryDy=0;" edge="1" parent="1" source="BT7zFztmOr8-_txrLHxJ-31" target="BT7zFztmOr8-_txrLHxJ-28">
          <mxGeometry relative="1" as="geometry">
            <mxPoint x="600" y="880" as="sourcePoint" />
            <mxPoint x="760" y="880" as="targetPoint" />
          </mxGeometry>
        </mxCell>
        <mxCell id="BT7zFztmOr8-_txrLHxJ-34" value="" style="endArrow=none;html=1;rounded=0;exitX=0.5;exitY=1;exitDx=0;exitDy=0;entryX=0.25;entryY=0;entryDx=0;entryDy=0;" edge="1" parent="1" source="BT7zFztmOr8-_txrLHxJ-29" target="BT7zFztmOr8-_txrLHxJ-28">
          <mxGeometry relative="1" as="geometry">
            <mxPoint x="630" y="930" as="sourcePoint" />
            <mxPoint x="790" y="930" as="targetPoint" />
            <Array as="points">
              <mxPoint x="650" y="770" />
              <mxPoint x="715" y="770" />
            </Array>
          </mxGeometry>
        </mxCell>
        <mxCell id="BT7zFztmOr8-_txrLHxJ-35" value="" style="endArrow=none;html=1;rounded=0;exitX=1;exitY=0.5;exitDx=0;exitDy=0;entryX=0.5;entryY=1;entryDx=0;entryDy=0;" edge="1" parent="1" source="BT7zFztmOr8-_txrLHxJ-25" target="BT7zFztmOr8-_txrLHxJ-28">
          <mxGeometry relative="1" as="geometry">
            <mxPoint x="730" y="900" as="sourcePoint" />
            <mxPoint x="890" y="900" as="targetPoint" />
            <Array as="points">
              <mxPoint x="750" y="890" />
            </Array>
          </mxGeometry>
        </mxCell>
      </root>
    </mxGraphModel>
  </diagram>
</mxfile>
